<svg width="512" height="512" viewBox="0 0 512 512" fill="none" xmlns="http://www.w3.org/2000/svg">
  <rect width="512" height="512" rx="72" fill="url(#bg)"/>
  <circle cx="120" cy="106" r="84" fill="#22D3EE" fill-opacity="0.2"/>
  <circle cx="398" cy="396" r="96" fill="#A855F7" fill-opacity="0.16"/>
  <ellipse cx="256" cy="422" rx="126" ry="30" fill="#020617" fill-opacity="0.5"/>
  <rect x="186" y="68" width="140" height="58" rx="28" fill="#1E293B"/>
  <rect x="244" y="34" width="24" height="48" rx="12" fill="#94A3B8"/>
  <circle cx="256" cy="26" r="14" fill="#F472B6"/>
  <path d="M132 188C132 145.935 166.935 111 209 111H303C345.065 111 380 145.935 380 188V256C380 298.065 345.065 333 303 333H209C166.935 333 132 298.065 132 256V188Z" fill="url(#head)"/>
  <path d="M172 168C172 153.641 183.641 142 198 142H314C328.359 142 340 153.641 340 168V266C340 280.359 328.359 292 314 292H198C183.641 292 172 280.359 172 266V168Z" fill="#020617" fill-opacity="0.72"/>
  <rect x="164" y="352" width="184" height="72" rx="36" fill="#0F172A"/>
  <rect x="190" y="366" width="132" height="44" rx="22" fill="#334155"/>
  <rect x="198" y="200" width="40" height="40" rx="20" fill="#22D3EE"/>
  <rect x="274" y="200" width="40" height="40" rx="20" fill="#F472B6"/>
  <rect x="212" y="258" width="88" height="10" rx="5" fill="#CBD5E1"/>
  <rect x="218" y="378" width="76" height="20" rx="10" fill="#E2E8F0"/>
  <defs>
    <linearGradient id="bg" x1="48" y1="36" x2="456" y2="474" gradientUnits="userSpaceOnUse">
      <stop stop-color="#030712"/>
      <stop offset="1" stop-color="#1E1B4B"/>
    </linearGradient>
    <linearGradient id="head" x1="168" y1="116" x2="354" y2="340" gradientUnits="userSpaceOnUse">
      <stop stop-color="#38BDF8"/>
      <stop offset="1" stop-color="#A855F7"/>
    </linearGradient>
  </defs>
</svg>
