<svg width="512" height="512" viewBox="0 0 512 512" fill="none" xmlns="http://www.w3.org/2000/svg">
  <rect width="512" height="512" rx="72" fill="url(#bg)"/>
  <circle cx="392" cy="112" r="72" fill="url(#glow)" fill-opacity="0.45"/>
  <circle cx="140" cy="404" r="110" fill="#0EA5E9" fill-opacity="0.15"/>
  <ellipse cx="256" cy="414" rx="118" ry="34" fill="#020617" fill-opacity="0.45"/>
  <rect x="214" y="92" width="84" height="118" rx="42" fill="#94A3B8" fill-opacity="0.18"/>
  <rect x="246" y="68" width="20" height="54" rx="10" fill="#CBD5E1"/>
  <circle cx="256" cy="54" r="18" fill="#22D3EE"/>
  <rect x="136" y="132" width="240" height="194" rx="68" fill="url(#head)"/>
  <rect x="156" y="154" width="200" height="150" rx="54" stroke="#E2E8F0" stroke-opacity="0.45" stroke-width="8"/>
  <rect x="170" y="236" width="172" height="28" rx="14" fill="#0F172A" fill-opacity="0.65"/>
  <circle cx="206" cy="214" r="28" fill="#67E8F9"/>
  <circle cx="306" cy="214" r="28" fill="#A78BFA"/>
  <circle cx="206" cy="214" r="12" fill="#F8FAFC"/>
  <circle cx="306" cy="214" r="12" fill="#F8FAFC"/>
  <rect x="198" y="346" width="116" height="86" rx="36" fill="#CBD5E1"/>
  <rect x="158" y="372" width="196" height="46" rx="22" fill="#E2E8F0" fill-opacity="0.78"/>
  <circle cx="196" cy="395" r="8" fill="#38BDF8"/>
  <circle cx="316" cy="395" r="8" fill="#38BDF8"/>
  <defs>
    <linearGradient id="bg" x1="72" y1="38" x2="440" y2="488" gradientUnits="userSpaceOnUse">
      <stop stop-color="#020617"/>
      <stop offset="1" stop-color="#111827"/>
    </linearGradient>
    <linearGradient id="glow" x1="320" y1="48" x2="460" y2="176" gradientUnits="userSpaceOnUse">
      <stop stop-color="#67E8F9"/>
      <stop offset="1" stop-color="#8B5CF6"/>
    </linearGradient>
    <linearGradient id="head" x1="164" y1="140" x2="344" y2="320" gradientUnits="userSpaceOnUse">
      <stop stop-color="#E2E8F0"/>
      <stop offset="1" stop-color="#94A3B8"/>
    </linearGradient>
  </defs>
</svg>
